<svg width="393" height="53" viewBox="0 0 393 53" fill="none" xmlns="http://www.w3.org/2000/svg">
<path d="M41.8786 22.7231C44.4352 22.7231 46.6599 24.541 46.6599 28.8574V28.874C46.6599 32.9082 44.842 35.2988 41.8288 35.2988C39.6291 35.2988 37.9855 33.9956 37.6037 32.1611L37.5871 32.0698H39.6955L39.7204 32.1528C40.0358 32.9912 40.7746 33.5391 41.8288 33.5391C43.7297 33.5391 44.5349 31.6797 44.6262 29.3887C44.6262 29.2974 44.6345 29.2061 44.6345 29.1147H44.4684C44.0285 30.061 42.9826 30.8994 41.3391 30.8994C39.0397 30.8994 37.4294 29.2227 37.4294 26.9482V26.9316C37.4294 24.4995 39.2805 22.7231 41.8786 22.7231ZM41.8703 29.2559C43.2233 29.2559 44.2609 28.2764 44.2609 26.9233V26.9067C44.2609 25.5371 43.2233 24.4663 41.8952 24.4663C40.5754 24.4663 39.5212 25.5205 39.5212 26.8569V26.8735C39.5212 28.2598 40.509 29.2559 41.8703 29.2559ZM50.0204 27.2388C49.265 27.2388 48.7006 26.6577 48.7006 25.9272C48.7006 25.1885 49.265 24.6157 50.0204 24.6157C50.7841 24.6157 51.3402 25.1885 51.3402 25.9272C51.3402 26.6577 50.7841 27.2388 50.0204 27.2388ZM50.0204 33.3979C49.265 33.3979 48.7006 32.8252 48.7006 32.0864C48.7006 31.3477 49.265 30.7749 50.0204 30.7749C50.7841 30.7749 51.3402 31.3477 51.3402 32.0864C51.3402 32.8252 50.7841 33.3979 50.0204 33.3979ZM59.1915 35V32.7007H53.3312V30.9492C54.8834 28.2515 56.5851 25.4956 58.212 23.022H61.2418V30.9326H62.8522V32.7007H61.2418V35H59.1915ZM55.3233 30.9824H59.2247V24.7319H59.1002C57.8717 26.6079 56.4855 28.8242 55.3233 30.8579V30.9824ZM67.408 35V25.1304H67.2669L64.2869 27.2388V25.2217L67.4163 23.022H69.5496V35H67.408Z" fill="white"/>
<rect opacity="0.35" x="340.172" y="22.5" width="24" height="12" rx="3" stroke="white"/>
<path opacity="0.4" d="M365.672 26.6667V30.6667C366.477 30.3279 367 29.5398 367 28.6667C367 27.7935 366.477 27.0054 365.672 26.6667Z" fill="white"/>
<rect x="341.672" y="24" width="21" height="9" rx="1.33333" fill="white"/>
<path fill-rule="evenodd" clip-rule="evenodd" d="M323.839 25.0674C326.306 25.0675 328.678 25.965 330.466 27.5744C330.6 27.6987 330.815 27.6971 330.948 27.5709L332.235 26.3411C332.302 26.2771 332.339 26.1904 332.339 26.1002C332.338 26.01 332.3 25.9237 332.232 25.8604C327.54 21.6022 320.138 21.6022 315.446 25.8604C315.378 25.9236 315.339 26.0099 315.339 26.1001C315.338 26.1903 315.375 26.277 315.443 26.3411L316.73 27.5709C316.862 27.6973 317.077 27.6989 317.212 27.5744C319 25.9649 321.372 25.0673 323.839 25.0674ZM323.837 29.1752C325.184 29.1752 326.482 29.6733 327.479 30.5728C327.614 30.7005 327.827 30.6977 327.958 30.5666L329.235 29.2824C329.302 29.215 329.34 29.1236 329.339 29.0287C329.338 28.9337 329.299 28.8431 329.23 28.7771C326.191 25.9633 321.486 25.9633 318.447 28.7771C318.379 28.8431 318.34 28.9338 318.339 29.0288C318.338 29.1237 318.375 29.2151 318.443 29.2824L319.719 30.5666C319.85 30.6977 320.063 30.7005 320.198 30.5728C321.195 29.6739 322.492 29.1758 323.837 29.1752ZM326.339 31.8944C326.341 31.9969 326.304 32.0958 326.237 32.1676L324.078 34.557C324.015 34.6272 323.929 34.6667 323.839 34.6667C323.749 34.6667 323.663 34.6272 323.599 34.557L321.44 32.1676C321.374 32.0958 321.337 31.9969 321.339 31.8943C321.341 31.7918 321.381 31.6947 321.451 31.6259C322.829 30.347 324.848 30.347 326.227 31.6259C326.296 31.6947 326.337 31.7919 326.339 31.8944Z" fill="white"/>
<path fill-rule="evenodd" clip-rule="evenodd" d="M307.939 23.7917C307.939 23.1704 307.461 22.6667 306.872 22.6667H305.805C305.216 22.6667 304.739 23.1704 304.739 23.7917V33.5417C304.739 34.1631 305.216 34.6667 305.805 34.6667H306.872C307.461 34.6667 307.939 34.1631 307.939 33.5417V23.7917ZM300.505 25.0667H301.572C302.161 25.0667 302.639 25.5825 302.639 26.2187V33.5147C302.639 34.151 302.161 34.6667 301.572 34.6667H300.505C299.916 34.6667 299.439 34.151 299.439 33.5147V26.2187C299.439 25.5825 299.916 25.0667 300.505 25.0667ZM296.172 27.6667H295.105C294.516 27.6667 294.039 28.1891 294.039 28.8334V33.5001C294.039 34.1444 294.516 34.6667 295.105 34.6667H296.172C296.761 34.6667 297.239 34.1444 297.239 33.5001V28.8334C297.239 28.1891 296.761 27.6667 296.172 27.6667ZM290.872 30.0667H289.805C289.216 30.0667 288.739 30.5816 288.739 31.2167V33.5167C288.739 34.1519 289.216 34.6667 289.805 34.6667H290.872C291.461 34.6667 291.939 34.1519 291.939 33.5167V31.2167C291.939 30.5816 291.461 30.0667 290.872 30.0667Z" fill="white"/>
</svg>
